<svg width="48" height="59" viewBox="0 0 48 59" fill="none" xmlns="http://www.w3.org/2000/svg">
<path fill-rule="evenodd" clip-rule="evenodd" d="M32.1612 1.40305C24.7451 7.63889 21.637 18.4565 25.1618 28.6871C28.6865 38.9178 37.7981 45.5253 47.4814 45.8699C45.2841 47.6427 42.7469 49.0707 39.9235 50.0434C26.8694 54.541 12.641 47.6045 8.1435 34.5504C3.64597 21.4964 10.5824 7.268 23.6365 2.77047C26.4599 1.79772 29.3382 1.35984 32.1612 1.40305Z" fill="url(#paint0_linear_22_2)"/>
<path d="M38 13L40.2451 19.9098H47.5106L41.6327 24.1803L43.8779 31.0902L38 26.8197L32.1221 31.0902L34.3673 24.1803L28.4894 19.9098H35.7549L38 13Z" fill="url(#paint1_linear_22_2)"/>
<defs>
<linearGradient id="paint0_linear_22_2" x1="15.8389" y1="5.45698" x2="24" y2="42.5" gradientUnits="userSpaceOnUse">
<stop stop-color="#FFE600"/>
<stop offset="1" stop-color="#FFA800" stop-opacity="0.83"/>
</linearGradient>
<linearGradient id="paint1_linear_22_2" x1="38" y1="13" x2="38" y2="38" gradientUnits="userSpaceOnUse">
<stop stop-color="#FFE600"/>
<stop offset="1" stop-color="#FFC961" stop-opacity="0.63"/>
</linearGradient>
</defs>
</svg>
